<svg id="Layer_1" data-name="Layer 1" xmlns="http://www.w3.org/2000/svg" viewBox="0 0 1984.25 1700.79"><defs><style>.cls-1,.cls-2,.cls-5{fill:#231f20;}.cls-1,.cls-5{stroke:#231f20;stroke-miterlimit:10;}.cls-1{stroke-width:4px;}.cls-3{fill:#9e0b0f;}.cls-4{fill:#0084b6;}.cls-5{stroke-width:2.83px;}</style></defs><title>Artboard 1</title><path class="cls-1" d="M44.55,1225.44V1050.69l62.27,116.58,62.27-116.58v174.75h-7.24v-146l-55,103.3-55-103.3v146Z"/><path class="cls-1" d="M296.74,1054.32A86.64,86.64,0,1,1,210.09,1141,86.73,86.73,0,0,1,296.74,1054.32Zm0,166a79.4,79.4,0,1,0-79.41-79.4A79.31,79.31,0,0,0,296.74,1220.36Z"/><path class="cls-1" d="M424.37,1225.44v-176l93.41,156.4V1056.49H525v175.95L431.61,1076v149.39Z"/><path class="cls-1" d="M566,1147.24h62.75v7.24H566Z"/><path class="cls-1" d="M717.58,1225.44V1063.73H665v-7.24H777.43v7.24H724.82v161.71Z"/><path class="cls-1" d="M818.43,1225.44V1056.49H914v7.24H825.67v63.71h72.41v7.24H825.67v83.51H914v7.24Z"/><path class="cls-1" d="M951.4,1147.24h62.75v7.24H951.4Z"/><path class="cls-1" d="M1151.22,1225.44c-5.31.48-12.79.72-17.86.72-54.55,0-81.82-42.48-81.82-85.2,0-43,27.27-85.44,82.06-85.44,5.07,0,12.31.24,17.62.72l-.48,7.24c-5.31-.48-12.55-.73-17.14-.73-50,0-74.82,39.1-74.82,78.2s24.86,78,74.58,78c4.58,0,12.07-.24,17.38-.72Z"/><path class="cls-1" d="M1251.84,1052.39l64.68,171.84-6.76,2.41-17.62-46.82h-80.61l-17.62,46.82-6.76-2.41Zm-37.66,120.19h75.06l-37.41-99.68Z"/><path class="cls-1" d="M1525.12,1049.49v176.39c-5.14.4-10.86.59-15.21.59-44.63,0-67-26.87-67-53.92,0-27.26,22.32-54.12,67.15-54.12,3,0,5.74.2,9.09.4v-69.33Zm-5.93,170.86v-95.6c-3.16-.2-6.32-.4-9.09-.4-40.88,0-61.23,24.1-61.23,48.2s20.34,48,61,48C1512.68,1220.54,1515.84,1220.54,1519.19,1220.34Z"/><path class="cls-1" d="M1560.25,1214h11.85v11.85h-11.85Z"/><path class="cls-1" d="M1659,1118a54.91,54.91,0,1,1-54.91,54.91A55,55,0,0,1,1659,1118Zm0,103.89a49,49,0,1,0-49-49A49,49,0,0,0,1659,1221.92Z"/><path class="cls-1" d="M1745.9,1214h11.85v11.85H1745.9Z"/><path class="cls-1" d="M1844.65,1118a54.91,54.91,0,1,1-54.91,54.91A55,55,0,0,1,1844.65,1118Zm0,103.89a49,49,0,1,0-49-49A49,49,0,0,0,1844.65,1221.92Z"/><path class="cls-1" d="M1931.54,1214h11.85v11.85h-11.85Z"/><path class="cls-2" d="M996,307S921.36,455.39,869,528.43,782.36,645.23,705.19,707C358.28,969.28,47.49,988.28,47.49,988.28s346,23.76,669.11-154C879.12,746.88,994,629,994,629s220,191.66,337.89,234.43c318.07,144.32,614.6,124.83,614.6,124.83s-371.57-67.42-532.93-186.49C1136.69,637.1,996,307,996,307Z"/><path class="cls-3" d="M717.55,626.17,818.29,499.77s68.43,116.9,121.66,170.13c58.93,77.94,207,161.47,233.33,172,115.48,59.88,169.65,69.38,258,92.19s180.58,37.07,180.58,37.07-149.21,0-254.71-15.21S1208,929.36,1104.37,890.39s-126.41-58-192-96.95S717.55,626.17,717.55,626.17Z"/><path class="cls-4" d="M43.35,989.34s297.19-47.63,480.47-124.61,267.27-171.2,308.68-205.36c64.21-55.54,297.07-341.62,297.07-341.62L1173.28,414S997.69,586.49,925.7,640.43C843.53,715,730.27,793.72,691.65,817s-143.75,73.9-300.1,110.49C283.44,957.87,43.35,989.34,43.35,989.34"/><path class="cls-5" d="M89.67,1367.59l-37.23-38.2-6.12,5.68v31.44H43.1V1291.4h3.22v39.27l43.46-40.46,2.15,2.36-37.23,34.56L92,1365.44Z"/><path class="cls-5" d="M104.94,1366.51V1291.4c2.79-.21,5.9-.32,8.27-.32,24.25,0,36.37,12.66,36.37,25.11,0,9.12-6.33,18.14-18.88,22.43l20.5,26.93-2.58,1.94-21.24-27.91a56.41,56.41,0,0,1-14.16,1.62c-1.61,0-3.22-.11-5-.22v25.54Zm3.22-72.11v43.35c1.72.11,3.54.21,5,.21,22.1,0,33.15-10.83,33.15-21.78s-11-21.88-33.15-21.88C111.7,1294.3,110,1294.3,108.16,1294.41Z"/><path class="cls-5" d="M198.64,1290.44A38.52,38.52,0,1,1,160.12,1329,38.56,38.56,0,0,1,198.64,1290.44Zm0,73.82a35.3,35.3,0,1,0-35.3-35.3A35.26,35.26,0,0,0,198.64,1364.26Z"/><path class="cls-5" d="M247.83,1291l25.75,69.32L299.34,1291l3,1-28.76,77.58-28.75-77.58Z"/><path class="cls-5" d="M315.9,1353.86c3.22,7.29,10.09,10.73,17.81,10.73,10.84,0,19.1-7.19,19.1-17.39,0-9-10.52-13.73-19.1-16.74-9.65-3.32-21.24-8.69-21.24-19.74,0-12.13,9.76-20.6,22.32-20.6,9,0,17.17,4.07,20.82,12.66l-3,1.28c-3.22-7.29-10.09-10.73-17.81-10.73-10.84,0-19.1,7.19-19.1,17.39,0,9,10.52,13.73,19.1,16.74,9.66,3.32,21.24,8.69,21.24,19.74,0,12.13-9.76,20.6-22.32,20.6-9.12,0-17.17-4.07-20.82-12.66Z"/><path class="cls-5" d="M389.11,1366.51v-71.89H365.72v-3.22h50v3.22H392.33v71.89Z"/><path class="cls-5" d="M429.38,1291l25.75,69.32L480.89,1291l3,1-28.76,77.58-28.75-77.58Z"/><path class="cls-5" d="M530.07,1290.44A38.52,38.52,0,1,1,491.55,1329,38.56,38.56,0,0,1,530.07,1290.44Zm0,73.82a35.3,35.3,0,1,0-35.3-35.3A35.26,35.26,0,0,0,530.07,1364.26Z"/><path class="cls-5" d="M622.84,1325.74a8.58,8.58,0,1,1-8.58,8.59A8.61,8.61,0,0,1,622.84,1325.74Z"/><path class="cls-5" d="M725.79,1367.59l-37.24-38.2-6.12,5.68v31.44h-3.22V1291.4h3.22v39.27l43.46-40.46,2.15,2.36-37.23,34.56,37.34,38.3Z"/><path class="cls-5" d="M744.27,1291.4v71.9h36.27v3.21H741V1291.4Z"/><path class="cls-5" d="M794,1366.51V1291.4h42.49v3.22H797.2V1323h32.19v3.22H797.2v37.13h39.27v3.21Z"/><path class="cls-5" d="M849.91,1366.51V1291.4c2.79-.21,5.9-.32,8.26-.32,24.25,0,36.37,12.66,36.37,25.11s-12.12,25-36.37,25c-1.61,0-3.22-.11-5-.22v25.54Zm3.22-72.11v43.35c1.72.11,3.54.21,5,.21,22.11,0,33.16-10.83,33.16-21.78s-11.05-21.88-33.16-21.88C856.68,1294.3,855,1294.3,853.13,1294.41Z"/><path class="cls-5" d="M924.09,1289.58,952.85,1366l-3,1.06L942,1346.24H906.17L898.33,1367l-3-1.06ZM907.35,1343h33.37l-16.63-44.32Z"/><path class="cls-5" d="M965.65,1366.51V1291.4c2.79-.21,5.9-.32,8.27-.32,24.25,0,36.37,12.66,36.37,25.11,0,9.12-6.33,18.14-18.88,22.43l20.5,26.93-2.58,1.94-21.24-27.91a56.4,56.4,0,0,1-14.16,1.62c-1.61,0-3.22-.11-5-.22v25.54Zm3.22-72.11v43.35c1.72.11,3.54.21,5,.21,22.1,0,33.15-10.83,33.15-21.78s-11-21.88-33.15-21.88C972.41,1294.3,970.7,1294.3,968.87,1294.41Z"/><path class="cls-5" d="M1026.09,1353.86c3.22,7.29,10.09,10.73,17.81,10.73,10.84,0,19.1-7.19,19.1-17.39,0-9-10.51-13.73-19.1-16.74-9.66-3.32-21.25-8.69-21.25-19.74,0-12.13,9.76-20.6,22.32-20.6,9,0,17.17,4.07,20.82,12.66l-3,1.28c-3.22-7.29-10.09-10.73-17.81-10.73-10.84,0-19.1,7.19-19.1,17.39,0,9,10.52,13.73,19.1,16.74,9.66,3.32,21.24,8.69,21.24,19.74,0,12.13-9.76,20.6-22.32,20.6-9.12,0-17.17-4.07-20.82-12.66Z"/><path class="cls-5" d="M1099.3,1366.51v-71.89h-23.39v-3.22h50v3.22h-23.39v71.89Z"/><path class="cls-5" d="M1139.57,1291l25.75,69.32,25.75-69.32,3,1-28.76,77.58-28.75-77.58Z"/><path class="cls-5" d="M1240.26,1290.44a38.52,38.52,0,1,1-38.52,38.52A38.56,38.56,0,0,1,1240.26,1290.44Zm0,73.82A35.3,35.3,0,1,0,1205,1329,35.26,35.26,0,0,0,1240.26,1364.26Z"/><path class="cls-5" d="M1333,1325.74a8.58,8.58,0,1,1-8.59,8.59A8.61,8.61,0,0,1,1333,1325.74Z"/><path class="cls-5" d="M1410.65,1366.51v-71.89h-23.39v-3.22h50v3.22h-23.39v71.89Z"/><path class="cls-5" d="M1450.17,1366.51V1291.4h42.49v3.22h-39.27V1323h32.19v3.22h-32.19v37.13h39.27v3.21Z"/><path class="cls-5" d="M1507.93,1353.86c3.22,7.29,10.09,10.73,17.81,10.73,10.84,0,19.1-7.19,19.1-17.39,0-9-10.51-13.73-19.1-16.74-9.65-3.32-21.24-8.69-21.24-19.74,0-12.13,9.76-20.6,22.32-20.6,9,0,17.17,4.07,20.82,12.66l-3,1.28c-3.22-7.29-10.09-10.73-17.81-10.73-10.84,0-19.1,7.19-19.1,17.39,0,9,10.52,13.73,19.1,16.74,9.66,3.32,21.25,8.69,21.25,19.74,0,12.13-9.76,20.6-22.32,20.6-9.12,0-17.17-4.07-20.81-12.66Z"/><path class="cls-5" d="M1586.93,1289.58l28.76,76.41-3,1.06-7.83-20.81H1569l-7.83,20.81-3-1.06ZM1570.2,1343h33.37l-16.64-44.32Z"/><path class="cls-5" d="M1628.49,1366.51V1291.4c2.79-.21,5.9-.32,8.27-.32,24.25,0,36.37,12.66,36.37,25.11,0,9.12-6.33,18.14-18.89,22.43l20.5,26.93-2.58,1.94-21.24-27.91a56.39,56.39,0,0,1-14.16,1.62c-1.61,0-3.22-.11-5-.22v25.54Zm3.22-72.11v43.35c1.72.11,3.54.21,5,.21,22.1,0,33.15-10.83,33.15-21.78s-11-21.88-33.15-21.88C1635.25,1294.3,1633.54,1294.3,1631.71,1294.41Z"/><path class="cls-5" d="M1688.94,1353.86c3.22,7.29,10.09,10.73,17.81,10.73,10.84,0,19.1-7.19,19.1-17.39,0-9-10.51-13.73-19.1-16.74-9.65-3.32-21.24-8.69-21.24-19.74,0-12.13,9.76-20.6,22.32-20.6,9,0,17.17,4.07,20.82,12.66l-3,1.28c-3.22-7.29-10.09-10.73-17.81-10.73-10.84,0-19.1,7.19-19.1,17.39,0,9,10.52,13.73,19.1,16.74,9.66,3.32,21.24,8.69,21.24,19.74,0,12.13-9.76,20.6-22.32,20.6-9.12,0-17.17-4.07-20.81-12.66Z"/><path class="cls-5" d="M1762.15,1366.51v-71.89h-23.4v-3.22h50v3.22h-23.39v71.89Z"/><path class="cls-5" d="M1802.42,1291l25.75,69.32,25.75-69.32,3,1-28.76,77.58-28.75-77.58Z"/><path class="cls-5" d="M1903.1,1290.44a38.52,38.52,0,1,1-38.52,38.52A38.56,38.56,0,0,1,1903.1,1290.44Zm0,73.82a35.3,35.3,0,1,0-35.3-35.3A35.26,35.26,0,0,0,1903.1,1364.26Z"/><path class="cls-2" d="M112.49,1494.12c-2.08.19-4.16.38-6,.38-21,0-31.92-12.75-31.92-25.88,0-19.64,13.88-26.07,22.48-26.07,13.41,0,21.16,10.39,21.16,23.8H77.45a18.06,18.06,0,0,0-.1,2.27c0,11.24,9.45,23,29.37,23,1.79,0,3.78-.1,5.76-.29Zm-34.76-30.6h37.4c0-7.93-6.23-18.13-18.13-18.13C88.88,1445.38,79.72,1451.24,77.73,1463.52Z"/><path class="cls-2" d="M127.6,1463.52h24.56v2.84H127.6Z"/><path class="cls-2" d="M165.94,1443.5v4.16a21.89,21.89,0,0,1,14.45-5.1c7.74,0,13.69,4.25,16.06,11.52,2.36-7.27,8.12-11.52,15.87-11.52,9.82,0,17.47,7.28,17.47,19.36v32.2H227v-32.2c0-3.68-2.17-16.53-14.64-16.53-10.39,0-14.45,9.35-14.45,16.25v32.49H195v-32.49c0-6.9-4.25-16.25-14.64-16.25a20.9,20.9,0,0,0-14.45,5.86v42.88h-2.83V1443.5Z"/><path class="cls-2" d="M245.65,1449.54a24.16,24.16,0,0,1,17.38-7c7.27,0,17,4.63,17,19.36v32.2h-2.83v-4.91c-4.53,4.15-10.58,5.86-16.53,5.86-10.58,0-20-7.27-20-18.61s9.35-18.42,20-18.42a23.56,23.56,0,0,1,16.53,6.52v-2.64c0-12.66-8-16.53-14.17-16.53a21.07,21.07,0,0,0-15.3,6Zm31.55,35.51v-16.44a20.68,20.68,0,0,0-16.53-7.74c-9.16,0-17.19,5.95-17.19,15.58s8.12,15.77,17.19,15.77C266.8,1492.23,273,1490.15,277.19,1485.05Z"/><path class="cls-2" d="M291.36,1428h4.72v4.72h-4.72Zm3.78,15.49v50.62H292.3V1443.5Z"/><path class="cls-2" d="M310.81,1409.78v84.34H308v-84.34Z"/><path class="cls-2" d="M322.9,1443.5h5.67v5.67H322.9Zm0,45h5.67v5.67H322.9Z"/><path class="cls-2" d="M1230.88,1470v29.09c-2.46.19-6.14.28-8.22.28-21.35,0-32-16.62-32-33.34s10.67-33.44,32-33.44c2.08,0,5.76.19,8.22.38v2.93a81.2,81.2,0,0,0-8.22-.47c-19.46,0-29.19,15.3-29.19,30.6s9.73,30.51,29.19,30.51c1.32,0,3.78,0,5.38-.1V1470Z"/><path class="cls-2" d="M1245.32,1488c2.83,6.42,8.88,9.44,15.68,9.44,9.54,0,16.81-6.33,16.81-15.3,0-7.93-9.25-12.09-16.81-14.74-8.5-2.93-18.7-7.65-18.7-17.38,0-10.67,8.6-18.14,19.65-18.14,7.93,0,15.11,3.59,18.32,11.14l-2.64,1.13c-2.83-6.42-8.88-9.45-15.68-9.45-9.54,0-16.81,6.33-16.81,15.3,0,7.93,9.26,12.09,16.81,14.73,8.5,2.93,18.7,7.65,18.7,17.38,0,10.67-8.59,18.13-19.64,18.13-8,0-15.11-3.59-18.32-11.15Z"/><path class="cls-2" d="M1292.45,1499.1v-68.38l24.37,45.62,24.37-45.62v68.38h-2.84V1442l-21.53,40.43L1295.28,1442v57.14Z"/><path class="cls-2" d="M1353.65,1448.48h5.67v5.67h-5.67Zm0,45h5.67v5.67h-5.67Z"/><path class="cls-5" d="M1440.82,1466c0,17.28-6.61,34.47-19.65,34.47s-19.65-17.19-19.65-34.47,6.52-34.48,19.65-34.48S1440.82,1448.86,1440.82,1466Zm-36.46,0c0,15.87,5.57,31.64,16.81,31.64S1438,1481.91,1438,1466s-5.67-31.64-16.81-31.64S1404.36,1450.27,1404.36,1466Z"/><path class="cls-5" d="M1491.35,1486.92h-7.93v12.18h-2.83v-12.18h-30l32.87-57.42v54.59h7.93Zm-10.77-2.83v-43.92l-25.12,43.92Z"/><path class="cls-5" d="M1523.55,1499.1v-61L1507.68,1458l-2.27-1.7,21-26.35v69.14Z"/><path class="cls-5" d="M1550.55,1468.5h24.56v2.84h-24.56Z"/><path class="cls-5" d="M1595.32,1496.46c1.32.1,2.83.19,4.16.19,17.66,0,21.53-12.94,21.53-25v-10.3a19.6,19.6,0,1,1,2.83-10.11v20.4c0,13.6-5.29,27.86-24.27,27.86-1.42,0-2.93-.1-4.25-.19Zm8.88-62.05a16.81,16.81,0,1,0,16.81,16.81A16.85,16.85,0,0,0,1604.2,1434.4Z"/><path class="cls-5" d="M1674.46,1466c0,17.28-6.61,34.47-19.65,34.47s-19.65-17.19-19.65-34.47,6.52-34.48,19.65-34.48S1674.46,1448.86,1674.46,1466Zm-36.46,0c0,15.87,5.57,31.64,16.81,31.64s16.81-15.77,16.81-31.64-5.67-31.64-16.81-31.64S1638,1450.27,1638,1466Z"/><path class="cls-5" d="M1695.62,1496.46c1.32.1,2.83.19,4.16.19,17.66,0,21.53-12.94,21.53-25v-10.3a19.6,19.6,0,1,1,2.84-10.11v20.4c0,13.6-5.29,27.86-24.28,27.86-1.42,0-2.93-.1-4.25-.19Zm8.88-62.05a16.81,16.81,0,1,0,16.81,16.81A16.85,16.85,0,0,0,1704.5,1434.4Z"/><path class="cls-5" d="M1734.53,1468.5h24.56v2.84h-24.56Z"/><path class="cls-5" d="M1788.64,1431.67a16.26,16.26,0,0,1,7.09,30.88,19.65,19.65,0,1,1-14.17,0,16.26,16.26,0,0,1,7.08-30.88Zm0,66a16.81,16.81,0,1,0-16.81-16.81A16.85,16.85,0,0,0,1788.64,1497.69Zm0-36.36a13.41,13.41,0,1,0-13.41-13.41A13.46,13.46,0,0,0,1788.64,1461.32Z"/><path class="cls-5" d="M1838.32,1431.67a16.26,16.26,0,0,1,7.09,30.88,19.65,19.65,0,1,1-14.17,0,16.26,16.26,0,0,1,7.08-30.88Zm0,66a16.81,16.81,0,1,0-16.81-16.81A16.85,16.85,0,0,0,1838.32,1497.69Zm0-36.36a13.41,13.41,0,1,0-13.41-13.41A13.46,13.46,0,0,0,1838.32,1461.32Z"/><path class="cls-5" d="M1868.92,1496.36a36.09,36.09,0,0,0,6.42.47c15.49,0,28.24-7,28.24-17.66,0-6.42-5.48-12.47-13.5-15.21-5.48-1.89-11.43-2.17-16.53-2.17l18.42-26H1870.8V1433h26.64l-18.51,26.16a45,45,0,0,1,12.09,2.08c8,2.74,15.4,9.73,15.4,17.95,0,14.45-17.28,20.49-31.07,20.49a42.58,42.58,0,0,1-6.9-.47Z"/><path class="cls-5" d="M382,1424.31h5.27v5.27H382Zm4.21,17.28V1498H383v-56.46Z"/><path class="cls-5" d="M403.7,1441.59v4.63a30.6,30.6,0,0,1,17.8-5.69c9.37,0,18.33,4.74,21.8,14.12a18.11,18.11,0,0,1,1.27,7.37v36h-3.16v-36c0-12-10.43-18.33-19.91-18.33-6.43,0-13.27,2.32-17.8,6.43V1498h-3.16v-56.46Z"/><path class="cls-5" d="M453.1,1441.59h4.74v-12.12c0-13.37,8.74-21.38,19.07-21.38,7.16,0,11.06,2.32,15.7,6.64L490.5,1417c-4.42-4.11-7.69-5.79-13.59-5.79-8.64,0-15.91,6.74-15.91,18.22v12.12h16.64v3.16H461v84.16h-3.16v-84.16H453.1Z"/><path class="cls-5" d="M508,1440.53a29.28,29.28,0,1,1-29.29,29.29A29.36,29.36,0,0,1,508,1440.53Zm0,55.41a26.12,26.12,0,1,0-26.13-26.12A26.12,26.12,0,0,0,508,1495.94Z"/><path class="cls-5" d="M604.38,1495.41a37.1,37.1,0,0,1-17.59,4.22,38.45,38.45,0,1,1,38.45-38.45c0,9.59-5.69,20-17.07,20a11.24,11.24,0,0,1-8.85-4.63,19.51,19.51,0,0,1-13.69,5.05c-7.69,0-16.22-5.58-16.22-15.49s8.53-15.38,16.22-15.38a20,20,0,0,1,12.53,4.32V1455c0-7.9-4.63-12.54-10.64-12.54a15.56,15.56,0,0,0-11.8,4.85l-2.32-2.32a19,19,0,0,1,14.12-5.69c7.9,0,13.8,5.9,13.8,15.69v18c0,2.21,3.27,5.06,6.85,5.06,9.27,0,13.91-8.74,13.91-16.86a35.29,35.29,0,1,0-35.29,35.29c6.32,0,11-1.48,16.33-4Zm-31.81-29.29c0,7.8,6.85,12.33,13.06,12.33a15.73,15.73,0,0,0,12.53-5.37V1459.7a16.65,16.65,0,0,0-12.53-5.79C579.41,1453.91,572.56,1458.33,572.56,1466.13Z"/><path class="cls-5" d="M641.15,1441.59v4.63a24.41,24.41,0,0,1,16.12-5.69c8.64,0,15.27,4.74,17.91,12.85,2.63-8.11,9.06-12.85,17.7-12.85,11,0,19.49,8.11,19.49,21.6V1498H709.2v-35.92c0-4.11-2.42-18.44-16.33-18.44-11.59,0-16.12,10.43-16.12,18.12V1498h-3.16v-36.24c0-7.69-4.74-18.12-16.32-18.12a23.31,23.31,0,0,0-16.12,6.53V1498H638v-56.46Z"/><path class="cls-5" d="M753.24,1440.53A29.28,29.28,0,1,1,724,1469.82,29.36,29.36,0,0,1,753.24,1440.53Zm0,55.41a26.12,26.12,0,1,0-26.13-26.12A26.12,26.12,0,0,0,753.24,1495.94Z"/><path class="cls-5" d="M797.91,1441.59v4.63a30.6,30.6,0,0,1,17.8-5.69c9.38,0,18.33,4.74,21.8,14.12a18.08,18.08,0,0,1,1.27,7.37v36h-3.16v-36c0-12-10.43-18.33-19.91-18.33-6.42,0-13.27,2.32-17.8,6.43V1498h-3.16v-56.46Z"/><path class="cls-5" d="M871.86,1444.75H855.22v33.5c0,11.48,7.06,16.75,16.12,16.75a21.59,21.59,0,0,0,2.42-.1l.42,3.16a26.41,26.41,0,0,1-2.84.11c-10.75,0-19.28-6.32-19.28-19.91v-33.5h-4.74v-3.16h4.74v-18.33h3.16v18.33h16.64Z"/><path class="cls-5" d="M921.27,1498c-2.32.21-4.63.42-6.74.42-23.38,0-35.6-14.22-35.6-28.86,0-21.91,15.48-29.07,25.07-29.07,15,0,23.6,11.59,23.6,26.54h-45.4a20.58,20.58,0,0,0-.1,2.53c0,12.54,10.54,25.6,32.76,25.6,2,0,4.21-.11,6.42-.32Zm-38.76-34.13h41.71c0-8.85-7-20.23-20.23-20.23C894.94,1443.69,884.72,1450.22,882.51,1463.92Z"/><path class="cls-5" d="M980.58,1498.47c-2.31.21-4.53.32-6.74.32-23.81,0-35.71-14.43-35.71-29s11.9-29.07,35.71-29.07c2.21,0,4.43.1,6.74.32l-.21,3.16c-2.32-.21-4.53-.31-6.53-.31-21.7,0-32.55,13.06-32.55,25.91s10.85,25.81,32.55,25.81c2,0,4.21-.1,6.53-.32Z"/><path class="cls-5" d="M995.76,1448.33a26.94,26.94,0,0,1,19.38-7.8c8.11,0,19,5.16,19,21.6V1498h-3.16v-5.48c-5.06,4.63-11.8,6.53-18.43,6.53-11.8,0-22.33-8.11-22.33-20.75s10.43-20.54,22.33-20.54a26.28,26.28,0,0,1,18.43,7.27v-2.95c0-14.12-9-18.44-15.8-18.44a23.5,23.5,0,0,0-17.07,6.74Zm35.18,39.61v-18.33a23.06,23.06,0,0,0-18.43-8.64c-10.22,0-19.17,6.64-19.17,17.38s9.06,17.59,19.17,17.59C1019.35,1495.94,1026.31,1493.62,1030.94,1487.94Z"/><path class="cls-5" d="M1047,1491.73h6.32V1498H1047Z"/><path class="cls-5" d="M1069.4,1493.62a34.56,34.56,0,0,0,10.32,2c12.54,0,20.54-5.79,20.54-13.17,0-5.48-5.79-9.27-16.22-11.06-12.11-2-19-7.06-19-14.22,0-9.06,9.27-16.33,23.7-16.33a35.83,35.83,0,0,1,11.59,2.21l-1.26,2.95a34.51,34.51,0,0,0-10.32-2c-12.54,0-20.54,5.79-20.54,13.17,0,5.48,5.79,9.27,16.22,11.06,12.11,2,19,7.06,19,14.22,0,9.06-9.27,16.33-23.7,16.33a35.9,35.9,0,0,1-11.59-2.21Z"/><path class="cls-5" d="M1115,1424.31h5.27v5.27H1115Zm4.21,17.28V1498h-3.16v-56.46Z"/></svg>